<?xml version="1.0" encoding="UTF-8"?>
<svg width="512" height="512" version="1.1" viewBox="0 0 135.47 135.47" xmlns="http://www.w3.org/2000/svg">
 <path d="m19.316 0.74357v40.476h-15.911v16.729h15.911v23.911h-15.911v16.922h15.911v35.941h20.119v-56.893c18.913 18.96 37.826 37.929 56.739 56.893h26.501c-11.93-11.978-23.86-23.958-35.79-35.941h27.138v-16.922h-44.001c-3.9257-3.9406-7.8365-7.8664-11.762-11.792 4.2975-4.0447 8.5947-8.0745 12.907-12.119h42.856v-16.729h-25.056c14.365-13.487 28.729-26.989 43.093-40.476h-25.889c-22.246 20.952-44.491 41.904-66.737 62.841v-62.841z" fill="#fff"/>
</svg>
